HIERARCHY
ROOT Hips
{
	OFFSET	0.00	0.00	0.00
	CHANNELS 6 Xposition Yposition Zposition Zrotation Xrotation Yrotation
	JOINT LeftUpLeg
	{
		OFFSET	 0.126116	-0.065224	 0.014019
		CHANNELS 3 Zrotation Xrotation Yrotation
		JOINT LeftLeg
		{
			OFFSET	 0.000000	 0.569914	 0.000000
			CHANNELS 3 Zrotation Xrotation Yrotation
			JOINT LeftFoot
			{
				OFFSET	 0.000000	 0.544423	 0.000000
				CHANNELS 3 Zrotation Xrotation Yrotation
				JOINT LeftToeBase
				{
					OFFSET	 0.000000	 0.207117	 0.000000
					CHANNELS 3 Zrotation Xrotation Yrotation
					End Site
					{
						OFFSET	 0.000000	 0.207117	 0.000000
					}
				}
			}
		}
	}
	JOINT RightUpLeg
	{
		OFFSET	-0.124023	-0.065224	 0.008373
		CHANNELS 3 Zrotation Xrotation Yrotation
		JOINT RightLeg
		{
			OFFSET	 0.000000	 0.570047	 0.000000
			CHANNELS 3 Zrotation Xrotation Yrotation
			JOINT RightFoot
			{
				OFFSET	 0.000000	 0.544354	 0.000000
				CHANNELS 3 Zrotation Xrotation Yrotation
				JOINT RightToeBase
				{
					OFFSET	 0.000000	 0.207540	 0.000000
					CHANNELS 3 Zrotation Xrotation Yrotation
					End Site
					{
						OFFSET	 0.000000	 0.207540	 0.000000
					}
				}
			}
		}
	}
	JOINT Spine
	{
		OFFSET	 0.000184	 0.117403	 0.007763
		CHANNELS 3 Zrotation Xrotation Yrotation
		JOINT Spine1
		{
			OFFSET	 0.000000	 0.137269	 0.000000
			CHANNELS 3 Zrotation Xrotation Yrotation
			JOINT Spine2
			{
				OFFSET	 0.000000	 0.156879	 0.000000
				CHANNELS 3 Zrotation Xrotation Yrotation
				JOINT LeftShoulder
				{
					OFFSET	 0.080501	 0.160143	 0.002496
					CHANNELS 3 Zrotation Xrotation Yrotation
					JOINT LeftArm
					{
						OFFSET	 0.000000	 0.164363	 0.000000
						CHANNELS 3 Zrotation Xrotation Yrotation
						JOINT LeftForeArm
						{
							OFFSET	 0.000000	 0.364576	 0.000000
							CHANNELS 3 Zrotation Xrotation Yrotation
							JOINT LeftHand
							{
								OFFSET	 0.000000	 0.360812	 0.000000
								CHANNELS 3 Zrotation Xrotation Yrotation
								JOINT LeftHandIndex1
								{
									OFFSET	 0.000000	 0.086006	 0.000000
									CHANNELS 3 Zrotation Xrotation Yrotation
									JOINT LeftHandIndex2
									{
										OFFSET	 0.000000	 0.047237	 0.000000
										CHANNELS 3 Zrotation Xrotation Yrotation
										JOINT LeftHandIndex3
										{
											OFFSET	-0.004284	 0.038165	 0.000551
											CHANNELS 3 Zrotation Xrotation Yrotation
											End Site
											{
												OFFSET	-0.004284	 0.038165	 0.000551
											}
										}
									}
								}
							}
						}
					}
				}
				JOINT Neck
				{
					OFFSET	 0.000000	 0.176489	 0.000000
					CHANNELS 3 Zrotation Xrotation Yrotation
					JOINT Head
					{
						OFFSET	 0.000000	 0.077941	 0.001747
						CHANNELS 3 Zrotation Xrotation Yrotation
						End Site
						{
							OFFSET	 0.000000	 0.077941	 0.001747
						}
					}
				}
				JOINT RightShoulder
				{
					OFFSET	-0.080363	 0.159706	-0.000306
					CHANNELS 3 Zrotation Xrotation Yrotation
					JOINT RightArm
					{
						OFFSET	 0.000000	 0.164196	 0.000000
						CHANNELS 3 Zrotation Xrotation Yrotation
						JOINT RightForeArm
						{
							OFFSET	 0.000000	 0.365611	 0.000000
							CHANNELS 3 Zrotation Xrotation Yrotation
							JOINT RightHand
							{
								OFFSET	 0.000000	 0.360648	 0.000000
								CHANNELS 3 Zrotation Xrotation Yrotation
								JOINT RightHandIndex1
								{
									OFFSET	 0.000000	 0.069977	 0.000000
									CHANNELS 3 Zrotation Xrotation Yrotation
									JOINT RightHandIndex2
									{
										OFFSET	 0.000000	 0.052305	 0.000000
										CHANNELS 3 Zrotation Xrotation Yrotation
										JOINT RightHandIndex3
										{
											OFFSET	 0.009002	 0.042196	 0.000782
											CHANNELS 3 Zrotation Xrotation Yrotation
											End Site
											{
												OFFSET	 0.009002	 0.042196	 0.000782
											}
										}
									}
								}
							}
						}
					}
				}
			}
		}
	}
}
MOTION
Frames:    10
Frame Time: 0.03333334
 0.441976	 0.962391	 0.413696	-6.569575	-36.051440	-177.098400	 99.356350	 77.465050	 68.571920	 64.038310	-73.538860	 70.186450	 90.295730	 77.127440	-93.304240	 1.292262	 28.425850	-2.713146	 147.961100	 83.006220	 27.313060	-91.784250	-79.114920	-96.753650	-126.924200	 72.787380	 129.537100	-1.288183	 28.361890	 2.710176	-0.265073	 15.102220	-0.404114	-0.773016	 9.656695	-0.726271	-0.728281	 9.342864	-0.807287	-125.817200	 25.294380	 104.365200	 29.691540	-2.075384	 3.991856	 42.616130	-3.153672	 8.320213	 4.321273	-34.180470	 5.916158	-6.580301	 5.266122	 0.000000	 0.000000	 0.000000	 0.000000	 0.000000	 0.000000	 0.000000	 8.986450	 41.348130	-4.753253	-3.958209	-45.161910	-0.396498	 130.733400	 26.026620	-106.991400	-31.662280	 1.402117	 16.913390	-37.366010	 0.829570	-22.876420	-18.108480	-34.469750	-11.450410	 15.208500	 5.323790	 0.000000	 0.000000	 0.000000	 0.000000	 0.000000	 0.000000	 0.000000
 0.443903	 0.938847	 0.419203	-7.024733	-36.548390	-177.439400	 86.532920	 77.769080	 81.031830	 75.098500	-74.628880	 80.761460	 94.432930	 77.345020	-97.632480	 1.292262	 28.425850	-2.713146	 134.702800	 85.644050	 40.174340	-109.404000	-78.481890	-114.076400	-129.491400	 72.292830	 132.160200	-1.288183	 28.361890	 2.710176	-0.363599	 15.316390	-0.581224	-0.892163	 10.365700	-0.953592	-0.899698	 9.073915	-0.900095	-125.957200	 26.174990	 104.901400	 30.677930	-2.938819	 4.827178	 41.683370	-3.097563	 3.331483	 4.696856	-31.603070	 7.668102	-6.580301	 5.266122	 0.000000	 0.000000	 0.000000	 0.000000	 0.000000	 0.000000	 0.000000	 9.416407	 41.648690	-4.838752	-4.367157	-45.929730	-0.448950	 130.614900	 26.616150	-107.312000	-33.091510	-0.363286	 17.141210	-37.113770	 0.824746	-21.573630	-17.716880	-31.903790	-11.682300	 15.208500	 5.323790	 0.000000	 0.000000	 0.000000	 0.000000	 0.000000	 0.000000	 0.000000
 0.454434	 0.796682	 0.454324	-8.802291	-37.936870	 179.864700	 30.133320	 71.459390	 136.138300	 133.776900	-69.800030	 136.616300	 112.440100	 78.627830	-116.571000	 1.292262	 28.425850	-2.713146	-10.450470	 77.558820	-176.004900	-154.667300	-65.809750	-158.872500	-136.693400	 69.945550	 139.811500	-1.288183	 28.361890	 2.710176	-0.648295	 16.086920	-1.471418	-1.148884	 14.319520	-2.019330	-1.713445	 6.968479	-1.257044	-125.995600	 33.378400	 109.033200	 33.400580	-7.490049	 8.399477	 34.228450	-2.620791	-41.223790	 6.186101	-6.187362	 23.772840	-6.580301	 5.266122	 0.000000	 0.000000	 0.000000	 0.000000	 0.000000	 0.000000	 0.000000	 11.296500	 42.167220	-4.832666	-6.886124	-50.436980	-0.986445	 125.137300	 31.279960	-108.037700	-38.163390	-7.769827	 13.491240	-34.388990	 0.772083	-6.529749	-14.108670	-5.201536	-12.063110	 15.208500	 5.323790	 0.000000	 0.000000	 0.000000	 0.000000	 0.000000	 0.000000	 0.000000
 0.454302	 0.788226	 0.457204	-8.962768	-37.862290	 179.582600	 28.213500	 70.809850	 137.713700	 135.759600	-69.154190	 138.315200	 112.772500	 78.823010	-116.889200	 1.292262	 28.425850	-2.713146	-10.902550	 76.744220	-175.924500	-155.502900	-65.130170	-159.709500	-136.661800	 70.110270	 139.876100	-1.288183	 28.361890	 2.710176	-0.629157	 15.937680	-1.539375	-1.107541	 15.011680	-2.113803	-1.834136	 6.239100	-1.269855	-125.480000	 33.898890	 109.130400	 33.659910	-7.727787	 9.785358	 34.290630	-2.624984	-42.623380	 6.421131	-5.043471	 24.254810	-6.580301	 5.266122	 0.000000	 0.000000	 0.000000	 0.000000	 0.000000	 0.000000	 0.000000	 11.540550	 41.920720	-4.900781	-7.336728	-51.011070	-1.151708	 124.662000	 31.783550	-108.090700	-38.681370	-7.655177	 12.800080	-34.062770	 0.765646	-6.133320	-13.894170	-3.963567	-13.183240	 15.208500	 5.323790	 0.000000	 0.000000	 0.000000	 0.000000	 0.000000	 0.000000	 0.000000
 0.453693	 0.790261	 0.458674	-9.184221	-37.620660	 179.380400	 28.566380	 71.072530	 136.928900	 135.167800	-69.353430	 137.555900	 111.881900	 79.006260	-115.888700	 1.292262	 28.425850	-2.713146	-10.993910	 77.099690	-176.216600	-155.048600	-65.504660	-159.243900	-136.148500	 70.412420	 139.408900	-1.288183	 28.361890	 2.710176	-0.595320	 15.818600	-1.517525	-1.156193	 15.235170	-2.084541	-1.927803	 5.739097	-1.298083	-124.908000	 34.151600	 109.050200	 33.776940	-7.171705	 10.761980	 35.006550	-2.672828	-42.816040	 6.971769	-4.633253	 24.266300	-6.580301	 5.266122	 0.000000	 0.000000	 0.000000	 0.000000	 0.000000	 0.000000	 0.000000	 11.738680	 41.482560	-4.966363	-7.717450	-51.286590	-1.297505	 124.346200	 32.067920	-108.120400	-39.068700	-7.119894	 12.181720	-34.282150	 0.770020	-5.765496	-13.450330	-3.906302	-14.248220	 15.208500	 5.323790	 0.000000	 0.000000	 0.000000	 0.000000	 0.000000	 0.000000	 0.000000
 0.452740	 0.793164	 0.460012	-9.430937	-37.364850	 179.192900	 29.082730	 71.398950	 136.044100	 134.271800	-69.644500	 136.472400	 110.786900	 79.245410	-114.700600	 1.292262	 28.425850	-2.713146	-10.877680	 77.502300	-176.739100	-154.514600	-65.929630	-158.567900	-135.841100	 70.825880	 139.154400	-1.288183	 28.361890	 2.710176	-0.561043	 15.691930	-1.524201	-1.155598	 15.462450	-2.093311	-2.016416	 5.350677	-1.347204	-124.359600	 34.125110	 108.824700	 34.266160	-6.568818	 11.113480	 35.695590	-2.718381	-42.296630	 7.831792	-5.001872	 23.746920	-6.580301	 5.266122	 0.000000	 0.000000	 0.000000	 0.000000	 0.000000	 0.000000	 0.000000	 11.808310	 40.812530	-4.990270	-7.883974	-51.058400	-1.359183	 124.223900	 32.162310	-108.121000	-39.656750	-6.861912	 11.780850	-34.810300	 0.780356	-5.140164	-13.037580	-4.498187	-14.925600	 15.208500	 5.323790	 0.000000	 0.000000	 0.000000	 0.000000	 0.000000	 0.000000	 0.000000
 0.451118	 0.805024	 0.460071	-9.677447	-36.808180	 179.054600	 31.850940	 72.535010	 132.910900	 130.870800	-70.642940	 132.771200	 108.477200	 79.644570	-112.192400	 1.292262	 28.425850	-2.713146	-10.388300	 78.865460	-177.627100	-152.894500	-67.127660	-156.700200	-135.450400	 71.484380	 138.852300	-1.288183	 28.361890	 2.710176	-0.504677	 15.491850	-1.473482	-1.141407	 15.672410	-2.116747	-2.070117	 4.987434	-1.452271	-123.860400	 33.716090	 108.434300	 34.854610	-7.894037	 13.239970	 37.101060	-2.810302	-41.792470	 9.827332	-5.978876	 22.974910	-6.580301	 5.266122	 0.000000	 0.000000	 0.000000	 0.000000	 0.000000	 0.000000	 0.000000	 11.417770	 39.121090	-4.835864	-7.519916	-49.481220	-1.210545	 124.334600	 31.919980	-108.028500	-40.126390	-6.556429	 11.815840	-35.732620	 0.798277	-5.386171	-12.938320	-5.581277	-14.962050	 15.208500	 5.323790	 0.000000	 0.000000	 0.000000	 0.000000	 0.000000	 0.000000	 0.000000
 0.450862	 0.813318	 0.458564	-9.615392	-36.381530	 179.052500	 34.181230	 73.375180	 130.588600	 128.465600	-71.258390	 130.010700	 107.514700	 80.014830	-111.117700	 1.292262	 28.425850	-2.713146	-10.547750	 79.883920	-177.499900	-151.673600	-67.948220	-155.384400	-135.056300	 71.784440	 138.474500	-1.288183	 28.361890	 2.710176	-0.445934	 15.252540	-1.442681	-0.999654	 16.652890	-2.107764	-2.087165	 4.180258	-1.538118	-124.029000	 33.253120	 108.288500	 35.170930	-8.284807	 13.062560	 37.799830	-2.855225	-41.715870	 11.229150	-5.370615	 22.277300	-6.580301	 5.266122	 0.000000	 0.000000	 0.000000	 0.000000	 0.000000	 0.000000	 0.000000	 10.754760	 37.349880	-4.567474	-6.928933	-47.743540	-1.012862	 124.513100	 31.517350	-107.866200	-40.714670	-6.569552	 12.206620	-35.841840	 0.800354	-5.952270	-13.691010	-6.426058	-14.742510	 15.208500	 5.323790	 0.000000	 0.000000	 0.000000	 0.000000	 0.000000	 0.000000	 0.000000
 0.448734	 0.829015	 0.457860	-9.611338	-35.714950	 179.087000	 39.257610	 74.758200	 125.384400	 123.349100	-72.358020	 124.706400	 104.540100	 80.295660	-107.913400	 1.292262	 28.425850	-2.713146	-9.945327	 81.766050	-178.186100	-148.966500	-69.553190	-152.690400	-133.929400	 72.304110	 137.364800	-1.288183	 28.361890	 2.710176	-0.418300	 15.035050	-1.396295	-0.950103	 16.281200	-2.069726	-2.086851	 4.019810	-1.619358	-124.183000	 32.831970	 108.155000	 34.778760	-8.034990	 13.036310	 39.118270	-2.939160	-41.653480	 12.338550	-5.307969	 21.593270	-6.580301	 5.266122	 0.000000	 0.000000	 0.000000	 0.000000	 0.000000	 0.000000	 0.000000	 10.173150	 35.735440	-4.350404	-6.408332	-46.160860	-0.855092	 124.672200	 31.128960	-107.715800	-40.425720	-6.004021	 12.544440	-36.824680	 0.819313	-6.419540	-13.984230	-7.299376	-14.368330	 15.208500	 5.323790	 0.000000	 0.000000	 0.000000	 0.000000	 0.000000	 0.000000	 0.000000
 0.446183	 0.850926	 0.455019	-9.271267	-34.637330	 179.361500	 48.893630	 76.667790	 115.877600	 115.531000	-73.595230	 116.838600	 100.746000	 80.497980	-103.882100	 1.292262	 28.425850	-2.713146	-9.077540	 84.902800	-178.726400	-144.501200	-71.685460	-148.503400	-132.244900	 72.583890	 135.635400	-1.288183	 28.361890	 2.710176	-0.346131	 14.670280	-1.328986	-0.820098	 15.891420	-2.074957	-1.980633	 3.496081	-1.576800	-123.837300	 32.004090	 107.575200	 34.287570	-5.899954	 12.704440	 40.510770	-3.025940	-41.214840	 13.682320	-5.767296	 21.041630	-6.580301	 5.266122	 0.000000	 0.000000	 0.000000	 0.000000	 0.000000	 0.000000	 0.000000	 8.739931	 32.652440	-3.681947	-5.470766	-43.247590	-0.672144	 124.705100	 30.400190	-107.327500	-39.452510	-4.575268	 11.633110	-38.596960	 0.852730	-6.174925	-14.902040	-8.628616	-14.621410	 15.208500	 5.323790	 0.000000	 0.000000	 0.000000	 0.000000	 0.000000	 0.000000	 0.000000
